PathFileType	4	(X/Y/Z)	/Users/itak/Documents/Research/Walk-IL/dataset/trc/00107_00007.trc
DataRate	CameraRate	NumFrames	NumMarkers	Units	OrigDataRate	OrigDataStartFrame	OrigNumFrames
100.000000	100.000000	4	53	mm	100.000000	350	561
Frame#	Time	RPSI			LPSI			L3			STRN			T10			C7			CLAV			RBAK			LBAK			LSHO			LUPA			LAEL			LAOL			LWTS			LWPS			LFRA			LIFD			LHPS			LHTS			RSHO			RUPA			RAEL			RAOL			RWTS			RWPS			RFRA			RIFD			RHTS			RHPS			RBHD			LFHD			RFHD			LBHD			LHIP			RHIP			RASI			LASI			LKNE			LTHI			LANK			LTIP			LTOE			LMT1			LMT5			LHEE			RKNE			RTHI			RANK			RTIP			RTOE			RMT1			RMT5			RHEE			
		X1	Y1	Z1	X2	Y2	Z2	X3	Y3	Z3	X4	Y4	Z4	X5	Y5	Z5	X6	Y6	Z6	X7	Y7	Z7	X8	Y8	Z8	X9	Y9	Z9	X10	Y10	Z10	X11	Y11	Z11	X12	Y12	Z12	X13	Y13	Z13	X14	Y14	Z14	X15	Y15	Z15	X16	Y16	Z16	X17	Y17	Z17	X18	Y18	Z18	X19	Y19	Z19	X20	Y20	Z20	X21	Y21	Z21	X22	Y22	Z22	X23	Y23	Z23	X24	Y24	Z24	X25	Y25	Z25	X26	Y26	Z26	X27	Y27	Z27	X28	Y28	Z28	X29	Y29	Z29	X30	Y30	Z30	X31	Y31	Z31	X32	Y32	Z32	X33	Y33	Z33	X34	Y34	Z34	X35	Y35	Z35	X36	Y36	Z36	X37	Y37	Z37	X38	Y38	Z38	X39	Y39	Z39	X40	Y40	Z40	X41	Y41	Z41	X42	Y42	Z42	X43	Y43	Z43	X44	Y44	Z44	X45	Y45	Z45	X46	Y46	Z46	X47	Y47	Z47	X48	Y48	Z48	X49	Y49	Z49	X50	Y50	Z50	X51	Y51	Z51	X52	Y52	Z52	X53	Y53	Z53	

351	3.5	-380.5690002441406	1108.067626953125	-291.2670288085938	-370.9769897460938	1121.07177734375	-426.2319946289062	-381.6761474609375	1154.000122070312	-360.569580078125	-165.4785766601562	1357.457275390625	-346.1075439453125	-417.2384948730469	1305.732055664062	-362.1388549804688	-378.3471069335938	1597.481567382812	-380.4123840332031	-199.4333343505859	1492.749755859375	-354.7453002929688	-439.6482849121094	1415.178100585938	-292.667236328125	-378.1121520996094	1575.258911132812	-481.823974609375	-286.4571838378906	1560.123779296875	-542.4910278320312	-297.8856506347656	1428.080444335938	-612.7718505859375	-275.1396179199219	1209.761474609375	-636.1188354492188	-345.4236450195312	1195.2978515625	-584.4611206054688	-181.4420623779297	949.5955200195312	-593.5802001953125	-260.9042053222656	926.5318603515625	-626.1300659179688	-258.6619873046875	1094.022583007812	-641.7008056640625	-176.4513549804688	755.9535522460938	-574.3922729492188	-233.7752990722656	850.9019165039062	-627.07958984375	-167.3068695068359	859.634033203125	-605.991455078125	-335.8127746582031	1582.9482421875	-193.7917022705078	-357.4936218261719	1510.778198242188	-130.9198760986328	-374.9854431152344	1217.969604492188	-102.8114166259766	-375.5433044433594	1214.832885742188	-199.5637664794922	-237.9827117919922	971.3130493164062	-105.1898651123047	-313.1928405761719	957.5999755859375	-75.90958404541016	-353.6901550292969	1144.703735351562	-84.46505737304688	-223.0305023193359	775.2579345703125	-121.8789901733398	-213.4284515380859	861.2592163085938	-97.5509033203125	-280.6266174316406	856.8758544921875	-68.865966796875	-348.7718505859375	1767.151611328125	-299.8647155761719	-193.8687438964844	1840.198974609375	-439.0556335449219	-194.0682983398438	1852.151611328125	-309.5887451171875	-357.5981140136719	1758.468627929688	-436.5860595703125	-270.3138732910156	1042.962280273438	-533.8809204101562	-253.1301422119141	1013.281127929688	-171.5882873535156	-176.7588043212891	1095.648071289062	-217.4561920166016	-167.1451873779297	1105.894775390625	-481.6698913574219	-194.83154296875	539.897705078125	-492.5705261230469	-232.1785888671875	682.9750366210938	-525.5138549804688	-243.2844696044922	28.36532211303711	-458.8024291992188	-264.5484313964844	283.0315551757812	-506.0704650878906	-14.3278284072876	42.59317016601562	-406.7005310058594	-92.36053466796875	46.8040885925293	-369.5857849121094	-119.6037979125977	32.23793029785156	-484.9445495605469	-310.35009765625	33.279296875	-395.5755310058594	-119.0467529296875	537.1903686523438	-210.1339263916016	-180.6416931152344	811.3889770507812	-184.35400390625	-484.5810241699219	149.9044342041016	-205.3032531738281	-202.5654754638672	424.9069519042969	-195.6123657226562	-282.1397094726562	56.82185363769531	-229.4820098876953	-331.9712219238281	61.4460563659668	-280.763427734375	-376.878662109375	83.11196899414062	-169.0491180419922	-524.5226440429688	182.9481201171875	-260.8240356445312	
352	3.51	-373.1155395507812	1108.213745117188	-291.4309997558594	-364.1166076660156	1121.089477539062	-426.4524841308594	-374.7212829589844	1153.95458984375	-360.9795532226562	-158.2451477050781	1357.785522460938	-347.2076416015625	-410.1202697753906	1306.089477539062	-362.873779296875	-370.890625	1597.79296875	-381.2339172363281	-192.0625915527344	1493.148071289062	-355.4476928710938	-432.2099914550781	1415.400390625	-293.6666870117188	-370.6526794433594	1575.689086914062	-482.7132568359375	-278.8710632324219	1560.770141601562	-543.1140747070312	-288.7604675292969	1428.815185546875	-613.5916748046875	-261.9771728515625	1210.902099609375	-637.3282470703125	-332.5997924804688	1195.2080078125	-586.41357421875	-165.0749664306641	951.835693359375	-594.8621826171875	-243.9449615478516	927.8897094726562	-628.2860107421875	-243.7360382080078	1095.448852539062	-643.1674194335938	-157.9410095214844	758.1383666992188	-576.6909790039062	-215.8210601806641	852.6755981445312	-629.412841796875	-149.6292114257812	862.1910400390625	-607.644287109375	-328.5143127441406	1583.045776367188	-194.5780029296875	-350.6388549804688	1511.0087890625	-131.8423156738281	-370.6921691894531	1218.347778320312	-104.5995483398438	-370.5446472167969	1215.442260742188	-201.3622741699219	-234.9553375244141	970.9844360351562	-106.5725555419922	-310.4853515625	957.5090942382812	-78.03814697265625	-349.9520568847656	1144.892456054688	-86.28732299804688	-220.4282073974609	774.980224609375	-123.6052703857422	-210.8508758544922	860.85009765625	-98.97704315185547	-278.3600463867188	856.6293334960938	-71.0205078125	-341.177734375	1767.429931640625	-300.3060302734375	-186.1445922851562	1840.411987304688	-439.5255432128906	-186.3373413085938	1852.299926757812	-310.0526428222656	-349.956787109375	1758.844970703125	-437.1115112304688	-264.0046081542969	1042.918579101562	-534.5599975585938	-244.6056671142578	1013.954162597656	-172.2596588134766	-168.7837066650391	1096.281005859375	-218.9222106933594	-160.4940795898438	1106.033081054688	-483.2254333496094	-190.7595520019531	539.666015625	-492.781982421875	-226.9381866455078	682.9216918945312	-525.5676879882812	-243.2086029052734	28.55250930786133	-458.6183166503906	-262.6581726074219	283.1660461425781	-505.9943542480469	-13.9007682800293	42.03852844238281	-406.6394958496094	-92.22322082519531	46.41469192504883	-369.6128234863281	-119.5402221679688	32.1730842590332	-485.1350402832031	-310.2865905761719	33.39437866210938	-395.3767395019531	-104.4773712158203	539.9183349609375	-211.7322692871094	-169.7754058837891	813.1301879882812	-184.9597625732422	-460.4939880371094	144.2898101806641	-204.6635437011719	-185.7765045166016	426.0660095214844	-196.8318176269531	-255.1809539794922	56.5972785949707	-229.1218872070312	-305.4816589355469	59.91169357299805	-280.0797729492188	-350.425537109375	81.24943542480469	-168.4498748779297	-501.7606811523438	175.7501220703125	-260.2076110839844	
353	3.52	-365.7483825683594	1108.300903320312	-291.50927734375	-357.32373046875	1121.056762695312	-426.5825500488281	-367.8833923339844	1153.891479492188	-361.3157958984375	-151.0745849609375	1358.048706054688	-348.352783203125	-402.9906311035156	1306.415649414062	-363.4870910644531	-363.471923828125	1598.080078125	-381.9674072265625	-184.720458984375	1493.48681640625	-356.1917724609375	-424.8008728027344	1415.626220703125	-294.5285949707031	-363.2747497558594	1576.094482421875	-483.5184936523438	-271.4060668945312	1561.393188476562	-543.7125244140625	-279.8248596191406	1429.542846679688	-614.378173828125	-249.1009979248047	1212.089599609375	-638.4628295898438	-319.9153442382812	1195.161010742188	-588.1536254882812	-148.7015838623047	954.3134765625	-596.0938110351562	-227.0292816162109	929.358642578125	-630.2039794921875	-229.0537567138672	1096.955322265625	-644.5194702148438	-139.1703491210938	760.5841674804688	-578.7467041015625	-197.8394927978516	854.5989990234375	-631.4910278320312	-131.8709716796875	865.0239868164062	-609.1890869140625	-321.1400756835938	1583.115234375	-195.3114776611328	-343.6105041503906	1511.207397460938	-132.6730346679688	-366.2001953125	1218.72119140625	-106.2914962768555	-365.4676513671875	1216.03955078125	-203.0584869384766	-231.8068084716797	970.6233520507812	-107.9921112060547	-307.6360778808594	957.4070434570312	-80.13623046875	-346.0385437011719	1145.079223632812	-88.04341888427734	-217.7711029052734	774.6707763671875	-125.4462509155273	-208.1856689453125	860.394775390625	-100.5039291381836	-275.9576110839844	856.3448486328125	-73.20418548583984	-333.6205444335938	1767.640991210938	-300.667724609375	-178.4666595458984	1840.601928710938	-439.9093933105469	-178.6182708740234	1852.376586914062	-310.4312133789062	-342.362060546875	1759.21337890625	-437.5557861328125	-257.765380859375	1042.80078125	-535.1407470703125	-236.1425628662109	1014.612426757812	-172.8718109130859	-160.8784637451172	1096.882446289062	-220.3208923339844	-153.9158325195312	1106.111694335938	-484.7320556640625	-186.6060333251953	539.4066772460938	-492.9618835449219	-221.6214141845703	682.829345703125	-525.5828247070312	-243.1308746337891	28.75389862060547	-458.408447265625	-260.6914367675781	283.3045349121094	-505.8672485351562	-13.40880870819092	41.47060775756836	-406.548583984375	-92.08629608154297	46.03423690795898	-369.6340637207031	-119.4776916503906	32.11529159545898	-485.3135986328125	-310.202880859375	33.52276992797852	-395.144775390625	-90.33919525146484	542.6010131835938	-213.3903656005859	-159.1170043945312	814.8287353515625	-185.499755859375	-435.69091796875	138.0007171630859	-203.9491424560547	-169.2122039794922	427.0787353515625	-198.0622711181641	-227.5248260498047	56.39612197875977	-229.2078247070312	-278.3468017578125	58.31558227539062	-279.7768249511719	-323.1875610351562	78.94536590576172	-168.1616363525391	-478.3547058105469	167.8300170898438	-259.3910522460938	
354	3.53	-358.4461975097656	1108.3447265625	-291.523193359375	-350.5746765136719	1120.982421875	-426.6422424316406	-361.1246337890625	1153.82470703125	-361.5908203125	-143.9565277099609	1358.250244140625	-349.5101013183594	-395.8649291992188	1306.706909179688	-364.0094604492188	-356.0855712890625	1598.341796875	-382.6251220703125	-177.4042053222656	1493.767456054688	-356.9600830078125	-417.43017578125	1415.8505859375	-295.2804870605469	-355.9556579589844	1576.470336914062	-484.2511596679688	-264.0362854003906	1561.978759765625	-544.2860717773438	-271.0664367675781	1430.248046875	-615.1314697265625	-236.5369415283203	1213.298095703125	-639.53466796875	-307.4140930175781	1195.140991210938	-589.7042846679688	-132.3376312255859	957.0433959960938	-597.2740478515625	-210.1795654296875	930.9252319335938	-631.8805541992188	-214.6487579345703	1098.51806640625	-645.7603149414062	-120.1306381225586	763.3001098632812	-580.530029296875	-179.8433685302734	856.6630859375	-633.2974853515625	-114.0474243164062	868.1436157226562	-610.6060791015625	-313.7119750976562	1583.152587890625	-195.9954223632812	-336.4402770996094	1511.364135742188	-133.4230041503906	-361.4788818359375	1219.07763671875	-107.8745651245117	-360.2950744628906	1216.612915039062	-204.6440734863281	-228.5208587646484	970.2080078125	-109.463134765625	-304.6161804199219	957.2871704101562	-82.17912292480469	-341.9079284667969	1145.254760742188	-89.71811676025391	-215.0996398925781	774.3025512695312	-127.4098663330078	-205.4396667480469	859.8684692382812	-102.149040222168	-273.4085998535156	856.017822265625	-75.39424896240234	-326.0856323242188	1767.774536132812	-300.9501953125	-170.8328552246094	1840.769897460938	-440.2119140625	-170.9210662841797	1852.380859375	-310.723876953125	-334.8058776855469	1759.560668945312	-437.9215087890625	-251.5137786865234	1042.623779296875	-535.6240234375	-227.7557067871094	1015.248413085938	-173.4256744384766	-153.043212890625	1097.449462890625	-221.6318054199219	-147.376708984375	1106.14794921875	-486.1637573242188	-182.4032592773438	539.1171875	-493.1191101074219	-216.2770233154297	682.7047729492188	-525.5820922851562	-243.0546875	28.95688629150391	-458.18505859375	-258.6459045410156	283.443603515625	-505.7252502441406	-12.87202739715576	40.90082550048828	-406.4221496582031	-91.95463562011719	45.67118835449219	-369.6504821777344	-119.4177093505859	32.06283187866211	-485.4753723144531	-310.1041870117188	33.66059112548828	-394.8993225097656	-76.62093353271484	545.2200927734375	-215.0824432373047	-148.6819305419922	816.4732666015625	-185.9777679443359	-410.1986083984375	131.1682739257812	-203.2083282470703	-152.8578643798828	427.9574890136719	-199.2699432373047	-199.2322692871094	56.31303787231445	-229.6393127441406	-250.5960845947266	56.75635147094727	-279.773193359375	-295.2662658691406	76.34214019775391	-168.1059265136719	-454.2932434082031	159.2964324951172	-258.445556640625	
